<?xml version="1.0" encoding="utf-8"?>
<!-- Generator: Adobe Illustrator 19.2.1, SVG Export Plug-In . SVG Version: 6.00 Build 0)  -->
<svg version="1.1" id="Layer_1" xmlns="http://www.w3.org/2000/svg" xmlns:xlink="http://www.w3.org/1999/xlink" x="0px" y="0px"
	 viewBox="0 0 400 400" style="enable-background:new 0 0 400 400;" xml:space="preserve">
<style type="text/css">
	.st0{stroke:#000000;stroke-miterlimit:10;}
	.st1{fill:none;stroke:#000000;stroke-width:8;stroke-miterlimit:10;}
</style>
<g>
	<path class="st0" d="M747.8,128.3c-8.6-14.6-18.4-31.1-19.2-50.3c0-0.1,0-0.2,0-0.3c-0.3-7.2-1.6-14-3.8-19.2
		c-2.7-6.4-6.6-9.9-10.8-9.9c-4.2,0-8.1,3.5-10.8,9.9c-2.2,5.2-3.6,12-3.8,19.2c0,0.1,0,0.2,0,0.3c-0.8,19.3-10.5,35.8-19.2,50.3
		c-6.8,11.5-12.7,21.4-12.7,30.4v8.5c0,1,0.7,1.8,1.7,2l23.7,3.2l0,9.7c0,1.1,0.9,2,2,2l12.7,0c1.1,0,2-0.9,2-2v-6.5h2.4v6.5
		c0,1.1,0.9,2,2,2c1.1,0,2-0.9,2-2v-6.5h2.4v6.5c0,1.1,0.9,2,2,2H733c1.1,0,2-0.9,2-2v-9.7l23.7-3.2c1-0.1,1.7-1,1.7-2v-8.5
		C760.5,149.7,754.6,139.8,747.8,128.3L747.8,128.3z M745.9,132.9c0,0.1,0,0.2,0,0.3V151c0,2.2-1.6,4-3.8,4.3l-7.3,1
		c-0.4-1.1-1.4-1.8-2.6-1.8h-3.6V98.8c3.9,11.6,10.1,22,15.7,31.6C744.9,131.2,745.4,132.1,745.9,132.9L745.9,132.9z M726.7,158.6
		l4.4,0v12c0,0,0,0,0,0v3c0,0-0.1,0-0.1,0h-8.6l0-15.1H726.7z M705.6,173.5v0.1l-8.6,0c0,0-0.1,0-0.1,0v-3c0,0,0,0,0,0v-12.1l8.8,0
		V173.5z M699.2,98.8l0,55.8l-3.6,0c-1.2,0-2.2,0.8-2.6,1.8l-7.3-1c-2.1-0.3-3.8-2.2-3.8-4.3v-17.8c0-0.1,0-0.2,0-0.3
		c0.5-0.8,1-1.7,1.5-2.6C689.2,120.8,695.3,110.3,699.2,98.8L699.2,98.8z M671.4,165.4v-6.7c0-5.5,2.8-11.8,6.6-18.9V151
		c0,4.1,3.1,7.7,7.2,8.3l7.7,1.1v7.9L671.4,165.4z M696.8,180v-2.4c0,0,0.1,0,0.1,0l8.6,0v2.4L696.8,180z M715.9,171.5l0-36.2
		c0-1.1-0.9-2-2-2c-1.1,0-2,0.9-2,2v36.2h-2.4v-14.2c0-1.5-1.2-2.8-2.8-2.8h-3.6l0-74.4c0-16.3,5.7-27.7,10.7-27.7
		c5.1,0,10.7,11.4,10.7,27.7l0,74.4h-3.6c-1.5,0-2.8,1.2-2.8,2.8v14.2L715.9,171.5z M722.3,180v-2.4h8.6c0,0,0.1,0,0.1,0v2.4H722.3z
		 M756.5,165.4l-21.5,2.9l0-7.9l7.7-1.1c4.1-0.6,7.2-4.1,7.2-8.3v-11.2c3.9,7.1,6.6,13.4,6.6,18.9V165.4z M756.5,165.4"/>
</g>
<path d="M722.3,82.3v-5.6c0-0.5-0.2-0.9-0.5-1.3c-2-2.3-4.9-3.6-7.9-3.6c-3,0-5.9,1.3-7.9,3.6c-0.3,0.4-0.5,0.8-0.5,1.3v5.6
	c0,1.1,0.9,2,2,2l12.7,0C721.4,84.3,722.3,83.4,722.3,82.3L722.3,82.3z M718.3,80.3l-8.8,0v-2.8c1.2-1.1,2.7-1.7,4.4-1.7
	c1.6,0,3.2,0.6,4.4,1.7V80.3z M718.3,80.3"/>
<rect x="566.9" y="225.1" style="fill:none;" width="294.6" height="38.2"/>
<text transform="matrix(1 0 0 1 596.3753 257.9847)" style="font-family:'Righteous-Regular'; font-size:44.9951px; letter-spacing:4;">APPOLLO</text>
<rect x="599.8" y="200" width="230.3" height="9.1"/>
<rect x="575.4" y="62.2" transform="matrix(0.7071 0.7071 -0.7071 0.7071 350.7438 -445.8986)" class="st1" width="276.5" height="276.5"/>
<text transform="matrix(1 1.240000e-03 -1.240000e-03 1 639.118 287.502)" style="font-family:'OpenSans-Extrabold'; font-size:18px;">COMMAND 2016</text>
<g>
	<g>
		<path d="M234,128.3c-8.6-14.6-18.4-31.1-19.2-50.3c0-0.1,0-0.2,0-0.3c-0.3-7.2-1.6-14-3.8-19.2c-2.7-6.4-6.6-9.9-10.8-9.9
			c-4.2,0-8.1,3.5-10.8,9.9c-2.2,5.2-3.6,12-3.8,19.2c0,0.1,0,0.2,0,0.3c-0.8,19.3-10.5,35.8-19.2,50.3
			c-6.8,11.5-12.7,21.4-12.7,30.4l0,8.5c0,1,0.7,1.8,1.7,2l23.7,3.2l0,9.7c0,1.1,0.9,2,2,2h12.7c1.1,0,2-0.9,2-2v-6.5h2.4v6.5
			c0,1.1,0.9,2,2,2c1.1,0,2-0.9,2-2v-6.5l2.4,0v6.5c0,1.1,0.9,2,2,2l12.7,0c1.1,0,2-0.9,2-2v-9.7l23.7-3.2c1-0.1,1.7-1,1.7-2v-8.5
			C246.6,149.7,240.8,139.8,234,128.3L234,128.3z M232.1,132.9c0,0.1,0,0.2,0,0.3l0,17.8c0,2.2-1.6,4-3.8,4.3l-7.3,1
			c-0.4-1.1-1.4-1.8-2.6-1.8h-3.6l0-55.8c3.9,11.6,10.1,22,15.7,31.6C231.1,131.2,231.6,132.1,232.1,132.9L232.1,132.9z
			 M212.8,158.6h4.4l0,12c0,0,0,0,0,0v3c0,0-0.1,0-0.1,0h-8.6l0-15.1L212.8,158.6z M191.7,173.5v0.1l-8.6,0c0,0-0.1,0-0.1,0v-3
			c0,0,0,0,0,0l0-12.1h8.8L191.7,173.5z M185.4,98.8l0,55.8h-3.6c-1.2,0-2.2,0.8-2.6,1.8l-7.3-1c-2.1-0.3-3.8-2.2-3.8-4.3l0-17.8
			c0-0.1,0-0.2,0-0.3c0.5-0.8,1-1.7,1.5-2.6C175.3,120.8,181.5,110.3,185.4,98.8L185.4,98.8z M157.5,165.4v-6.7
			c0-5.5,2.8-11.8,6.6-18.9l0,11.2c0,4.1,3.1,7.7,7.2,8.3l7.7,1.1v7.9L157.5,165.4z M183,180v-2.4c0,0,0.1,0,0.1,0l8.6,0v2.4H183z
			 M202.1,171.5l0-36.2c0-1.1-0.9-2-2-2c-1.1,0-2,0.9-2,2l0,36.2h-2.4l0-14.2c0-1.5-1.2-2.8-2.8-2.8h-3.6l0-74.4
			c0-16.3,5.7-27.7,10.7-27.7c5.1,0,10.7,11.4,10.7,27.7l0,74.4h-3.6c-1.5,0-2.8,1.2-2.8,2.8v14.2H202.1z M208.5,180l0-2.4h8.6
			c0,0,0.1,0,0.1,0v2.4L208.5,180z M242.7,165.4l-21.5,2.9v-7.9l7.7-1.1c4.1-0.6,7.2-4.1,7.2-8.3l0-11.2c3.9,7.1,6.6,13.4,6.6,18.9
			L242.7,165.4z M242.7,165.4"/>
		<path d="M219.2,184.5h-12.7c-1.4,0-2.5-1.1-2.5-2.5v-6h-1.4v6c0,1.4-1.1,2.5-2.5,2.5s-2.5-1.1-2.5-2.5v-6h-1.4v6
			c0,1.4-1.1,2.5-2.5,2.5H181c-1.4,0-2.5-1.1-2.5-2.5v-9.3l-23.3-3.1c-1.2-0.2-2.2-1.2-2.2-2.5v-8.5c0-9.1,5.9-19.1,12.7-30.6
			c8.6-14.5,18.3-31,19.1-50.1c0-0.2,0-0.3,0.1-0.4c0.2-7.2,1.6-14.1,3.9-19.3c2.8-6.6,6.8-10.2,11.3-10.2c4.5,0,8.5,3.6,11.3,10.2
			c2.3,5.3,3.6,12,3.9,19.4c0,0.1,0,0.2,0,0.3c0.8,19.2,10.5,35.6,19.1,50.1v0l-0.4,0.3l0.4-0.2c6.8,11.5,12.7,21.5,12.7,30.6v8.5
			c0,1.2-0.9,2.3-2.2,2.5l-23.3,3.1v9.3C221.7,183.4,220.6,184.5,219.2,184.5z M201.6,175h3.4v7c0,0.8,0.7,1.5,1.5,1.5h12.7
			c0.8,0,1.5-0.7,1.5-1.5v-10.2l24.2-3.2c0.7-0.1,1.3-0.7,1.3-1.5v-8.5c0-8.8-5.8-18.7-12.6-30.1l0.4-0.3l-0.4,0.3
			c-8.6-14.6-18.5-31.2-19.2-50.6c0-0.1,0-0.2,0-0.3c-0.3-7.3-1.6-14-3.8-19.1c-2.7-6.2-6.3-9.6-10.4-9.6c-4,0-7.7,3.4-10.4,9.6
			c-2.2,5.1-3.5,11.9-3.8,19.1c0,0.2,0,0.3,0,0.4c-0.8,19.4-10.6,36-19.2,50.6c-6.8,11.4-12.6,21.3-12.6,30.1v8.5
			c0,0.7,0.6,1.4,1.3,1.5l24.2,3.2V182c0,0.8,0.7,1.5,1.5,1.5h12.7c0.8,0,1.5-0.7,1.5-1.5v-7h3.4v7c0,0.8,0.7,1.5,1.5,1.5
			c0.8,0,1.5-0.7,1.5-1.5V175z M217.7,180.5H208v-3.4l9.7,0l0.1,0.5V180.5z M209,179.5h7.8v-1.4l-7.8,0V179.5z M192.2,180.5h-9.8
			v-3.4l0.5,0l9.2,0V180.5z M183.5,179.5h7.8v-1.4h-7.8V179.5z M182.6,174.2l-0.1-0.5v-15.6h9.8v16.1L182.6,174.2z M183.5,173.2h7.8
			v-14.1h-7.8V173.2z M217.7,174.2l-0.5,0l-9.2,0v-16.1h9.8V174.2z M209,173.2h7.8v-14.1H209V173.2z M205,172h-3.4v-36.7
			c0-0.8-0.7-1.5-1.5-1.5s-1.5,0.7-1.5,1.5V172h-3.4v-14.7c0-1.3-1-2.3-2.3-2.3h-4.1V80.2c0-16.9,5.8-28.2,11.2-28.2
			c5.4,0,11.2,11.3,11.2,28.2v74.9h-4.1c-1.3,0-2.3,1-2.3,2.3V172z M202.6,171h1.4v-13.7c0-1.8,1.5-3.3,3.3-3.3h3.1V80.2
			c0-15.6-5.4-27.2-10.2-27.2c-4.8,0-10.2,11.6-10.2,27.2v73.9h3.1c1.8,0,3.3,1.5,3.3,3.3V171h1.4v-35.7c0-1.4,1.1-2.5,2.5-2.5
			c1.4,0,2.5,1.1,2.5,2.5V171z M220.7,168.9V160l8.1-1.2c3.8-0.5,6.7-3.9,6.7-7.8v-13.2l0.9,1.7c3.3,6,6.7,13,6.7,19.1v7.2
			L220.7,168.9z M221.7,160.8v6.9l20.5-2.7v-6.3c0-5.3-2.7-11.4-5.6-16.9v9.3c0,4.4-3.3,8.1-7.6,8.8L221.7,160.8z M179.5,168.9
			l-22.5-3v-7.2c0-6.1,3.4-13.1,6.7-19.1l0.9-1.7V151c0,3.9,2.9,7.2,6.7,7.8l8.1,1.2V168.9z M158,165l20.5,2.7v-6.9l-7.3-1
			c-4.3-0.6-7.6-4.4-7.6-8.8v-9.3c-2.9,5.5-5.6,11.6-5.6,16.9V165z M220.7,157l-0.1-0.4c-0.3-0.9-1.2-1.5-2.1-1.5h-4.1V95.7l1,2.9
			c3.9,11.5,10.2,22.1,15.7,31.5c0.5,0.9,1,1.7,1.5,2.6l0.1,0.2l0,0.2c0,0.1,0,0.1,0,0.2V151c0,2.4-1.8,4.5-4.2,4.8L220.7,157z
			 M215.3,154.1h3.1c1.2,0,2.4,0.7,2.9,1.8l6.9-1c1.9-0.3,3.3-1.9,3.3-3.8v-17.8c0-0.1,0-0.1,0-0.2c-0.5-0.8-0.9-1.6-1.4-2.4
			c-5.1-8.6-10.9-18.4-14.8-28.9V154.1z M179.5,157l-7.7-1.1c-2.4-0.3-4.2-2.4-4.2-4.8v-17.8c0-0.1,0-0.2,0-0.2l0-0.2l0.1-0.2
			c0.5-0.9,1-1.7,1.5-2.6c5.5-9.3,11.8-19.9,15.7-31.5l1-2.9v59.3h-4.1c-1,0-1.8,0.6-2.1,1.5L179.5,157z M168.6,133
			c0,0.1,0,0.1,0,0.2V151c0,1.9,1.4,3.6,3.3,3.8l6.9,1c0.6-1.1,1.7-1.8,2.9-1.8h3.1v-52.4c-4,10.6-9.7,20.3-14.8,28.9
			C169.6,131.4,169.1,132.2,168.6,133z"/>
	</g>
</g>
<g>
	<path d="M208.5,82.3v-5.6c0-0.5-0.2-0.9-0.5-1.3c-2-2.3-4.9-3.6-7.9-3.6c-3,0-5.9,1.3-7.9,3.6c-0.3,0.4-0.5,0.8-0.5,1.3l0,5.6
		c0,1.1,0.9,2,2,2l12.7,0C207.6,84.3,208.5,83.4,208.5,82.3L208.5,82.3z M204.5,80.3l-8.8,0l0-2.8c1.2-1.1,2.7-1.7,4.4-1.7
		c1.6,0,3.2,0.6,4.4,1.7V80.3z M204.5,80.3"/>
</g>
<g>
	<path d="M110.8,258h-6.3v-6.3H91.9v6.3h-6.3v-18.9c0-1.7,0.3-3.4,1-4.9s1.6-2.9,2.7-4c1.1-1.1,2.5-2,4-2.7c1.5-0.7,3.2-1,4.9-1
		c1.7,0,3.4,0.3,4.9,1c1.5,0.7,2.9,1.6,4,2.7c1.1,1.1,2,2.5,2.7,4s1,3.2,1,4.9V258z M104.5,245.4v-6.3c0-0.9-0.2-1.7-0.5-2.4
		c-0.3-0.8-0.8-1.4-1.4-2s-1.2-1-2-1.4c-0.8-0.3-1.6-0.5-2.4-0.5c-0.9,0-1.7,0.2-2.4,0.5c-0.8,0.3-1.4,0.8-2,1.4s-1,1.2-1.4,2
		c-0.3,0.8-0.5,1.6-0.5,2.4v6.3H104.5z"/>
	<path d="M127.1,258h-6.3v-31.5h12.6c1.2,0,2.3,0.1,3.3,0.5c1.1,0.3,2.1,0.7,3,1.3c0.9,0.5,1.8,1.2,2.5,2c0.8,0.8,1.4,1.6,2,2.6
		c0.5,0.9,1,1.9,1.3,3c0.3,1.1,0.5,2.2,0.5,3.3c0,1.7-0.3,3.4-1,4.9s-1.6,2.9-2.7,4c-1.1,1.1-2.5,2-4,2.7c-1.5,0.7-3.2,1-4.9,1h-6.3
		V258z M127.1,232.8v12.6h6.3c0.9,0,1.7-0.2,2.4-0.5c0.8-0.3,1.4-0.8,2-1.4c0.6-0.6,1-1.2,1.4-2c0.3-0.8,0.5-1.6,0.5-2.5
		s-0.2-1.7-0.5-2.4c-0.3-0.8-0.8-1.4-1.4-2c-0.6-0.6-1.2-1-2-1.4c-0.8-0.3-1.6-0.5-2.4-0.5H127.1z"/>
	<path d="M160.5,258h-6.3v-31.5h12.6c1.2,0,2.3,0.1,3.3,0.5c1.1,0.3,2.1,0.7,3,1.3c0.9,0.5,1.8,1.2,2.5,2c0.8,0.8,1.4,1.6,2,2.6
		c0.5,0.9,1,1.9,1.3,3c0.3,1.1,0.5,2.2,0.5,3.3c0,1.7-0.3,3.4-1,4.9s-1.6,2.9-2.7,4c-1.1,1.1-2.5,2-4,2.7c-1.5,0.7-3.2,1-4.9,1h-6.3
		V258z M160.5,232.8v12.6h6.3c0.9,0,1.7-0.2,2.4-0.5c0.8-0.3,1.4-0.8,2-1.4c0.6-0.6,1-1.2,1.4-2c0.3-0.8,0.5-1.6,0.5-2.5
		s-0.2-1.7-0.5-2.4c-0.3-0.8-0.8-1.4-1.4-2c-0.6-0.6-1.2-1-2-1.4c-0.8-0.3-1.6-0.5-2.4-0.5H160.5z"/>
	<path d="M218.4,242.4c0,1.5-0.2,2.9-0.6,4.3c-0.4,1.4-0.9,2.7-1.6,3.9s-1.6,2.3-2.5,3.3s-2.1,1.8-3.3,2.6c-1.2,0.7-2.5,1.3-3.9,1.6
		c-1.4,0.4-2.8,0.6-4.3,0.6c-1.5,0-2.9-0.2-4.3-0.6c-1.4-0.4-2.7-0.9-3.9-1.6c-1.2-0.7-2.3-1.6-3.3-2.6c-1-1-1.8-2.1-2.6-3.3
		c-0.7-1.2-1.3-2.5-1.6-3.9s-0.6-2.8-0.6-4.3s0.2-2.9,0.6-4.3s0.9-2.7,1.6-3.9c0.7-1.2,1.6-2.3,2.6-3.3c1-1,2.1-1.8,3.3-2.5
		c1.2-0.7,2.5-1.2,3.9-1.6c1.4-0.4,2.8-0.6,4.3-0.6c1.5,0,2.9,0.2,4.3,0.6c1.4,0.4,2.7,0.9,3.9,1.6c1.2,0.7,2.3,1.6,3.3,2.5
		s1.8,2.1,2.5,3.3c0.7,1.2,1.2,2.5,1.6,3.9C218.3,239.4,218.4,240.9,218.4,242.4z M212.2,242.4c0-1.4-0.3-2.7-0.8-3.9
		c-0.5-1.2-1.2-2.3-2.1-3.2c-0.9-0.9-2-1.6-3.2-2.1c-1.2-0.5-2.5-0.8-3.9-0.8c-1.4,0-2.7,0.3-3.9,0.8s-2.3,1.2-3.2,2.1
		c-0.9,0.9-1.6,2-2.2,3.2s-0.8,2.5-0.8,3.9c0,1.4,0.3,2.7,0.8,3.9s1.2,2.3,2.2,3.2s2,1.6,3.2,2.2s2.5,0.8,3.9,0.8
		c1.4,0,2.7-0.3,3.9-0.8c1.2-0.5,2.3-1.2,3.2-2.2s1.6-2,2.1-3.2C211.9,245,212.2,243.7,212.2,242.4z"/>
	<path d="M249.1,258h-22.1v-31.5h6.3v25.2h15.8V258z"/>
	<path d="M279,258h-22.1v-31.5h6.3v25.2H279V258z"/>
	<path d="M316.5,242.4c0,1.5-0.2,2.9-0.6,4.3c-0.4,1.4-0.9,2.7-1.6,3.9s-1.6,2.3-2.5,3.3s-2.1,1.8-3.3,2.6c-1.2,0.7-2.5,1.3-3.9,1.6
		c-1.4,0.4-2.8,0.6-4.3,0.6c-1.5,0-2.9-0.2-4.3-0.6c-1.4-0.4-2.7-0.9-3.9-1.6c-1.2-0.7-2.3-1.6-3.3-2.6s-1.8-2.1-2.6-3.3
		c-0.7-1.2-1.3-2.5-1.6-3.9c-0.4-1.4-0.6-2.8-0.6-4.3s0.2-2.9,0.6-4.3c0.4-1.4,0.9-2.7,1.6-3.9c0.7-1.2,1.6-2.3,2.6-3.3
		s2.1-1.8,3.3-2.5c1.2-0.7,2.5-1.2,3.9-1.6c1.4-0.4,2.8-0.6,4.3-0.6c1.5,0,2.9,0.2,4.3,0.6c1.4,0.4,2.7,0.9,3.9,1.6
		c1.2,0.7,2.3,1.6,3.3,2.5s1.8,2.1,2.5,3.3c0.7,1.2,1.2,2.5,1.6,3.9C316.3,239.4,316.5,240.9,316.5,242.4z M310.3,242.4
		c0-1.4-0.3-2.7-0.8-3.9c-0.5-1.2-1.2-2.3-2.1-3.2c-0.9-0.9-2-1.6-3.2-2.1c-1.2-0.5-2.5-0.8-3.9-0.8c-1.4,0-2.7,0.3-3.9,0.8
		s-2.3,1.2-3.2,2.1c-0.9,0.9-1.6,2-2.2,3.2s-0.8,2.5-0.8,3.9c0,1.4,0.3,2.7,0.8,3.9s1.2,2.3,2.2,3.2s2,1.6,3.2,2.2s2.5,0.8,3.9,0.8
		c1.4,0,2.7-0.3,3.9-0.8c1.2-0.5,2.3-1.2,3.2-2.2s1.6-2,2.1-3.2C310,245,310.3,243.7,310.3,242.4z"/>
</g>
<g>
	<rect x="86" y="200" width="230.3" height="9.1"/>
</g>
<g>
	<path d="M199.8,401.6L-1.4,200.4L199.8-0.8L401,200.4L199.8,401.6z M9.9,200.4l189.9,189.9l189.9-189.9L199.8,10.6L9.9,200.4z"/>
</g>
<g>
	<path d="M132.4,277.3c-0.8,0-1.5,0.3-1.9,1c-0.5,0.7-0.7,1.6-0.7,2.8c0,2.5,0.9,3.7,2.8,3.7c0.6,0,1.1-0.1,1.7-0.2
		c0.5-0.2,1.1-0.3,1.6-0.6l0,2.9c-1.1,0.5-2.3,0.7-3.6,0.7c-1.9,0-3.4-0.6-4.5-1.7s-1.5-2.8-1.5-4.9c0-1.3,0.3-2.5,0.8-3.5
		c0.5-1,1.2-1.8,2.2-2.3c0.9-0.5,2-0.8,3.3-0.8c1.4,0,2.7,0.3,4,0.9l-1.1,2.7c-0.5-0.2-0.9-0.4-1.4-0.6
		C133.5,277.4,132.9,277.3,132.4,277.3z"/>
	<path d="M150.4,281.1c0,2.2-0.5,3.8-1.6,4.9c-1.1,1.1-2.6,1.7-4.7,1.7c-2,0-3.6-0.6-4.6-1.7c-1.1-1.1-1.6-2.8-1.6-4.9
		c0-2.1,0.5-3.8,1.6-4.9c1.1-1.1,2.6-1.7,4.7-1.7c2,0,3.6,0.6,4.6,1.7C149.9,277.3,150.4,278.9,150.4,281.1z M141.5,281.1
		c0,2.5,0.9,3.7,2.6,3.7c0.9,0,1.5-0.3,2-0.9c0.4-0.6,0.6-1.5,0.6-2.8c0-1.3-0.2-2.2-0.6-2.8c-0.4-0.6-1.1-0.9-1.9-0.9
		C142.4,277.3,141.5,278.6,141.5,281.1z"/>
	<path d="M158.3,287.5l-2.6-9.3h-0.1c0.1,1.6,0.2,2.8,0.2,3.7l0,5.6l-3.1,0l0-12.8l4.6,0l2.7,9.1h0.1l2.6-9.1l4.6,0l0,12.8l-3.2,0
		l0-5.6c0-0.3,0-0.6,0-1s0-1.2,0.1-2.6h-0.1l-2.6,9.2L158.3,287.5z"/>
	<path d="M175.7,287.6l-2.6-9.3H173c0.1,1.6,0.2,2.8,0.2,3.7l0,5.6l-3.1,0l0-12.8l4.6,0l2.7,9.1h0.1l2.6-9.1l4.6,0l0,12.8l-3.2,0
		l0-5.6c0-0.3,0-0.6,0-1s0-1.2,0.1-2.6h-0.1l-2.6,9.2L175.7,287.6z"/>
	<path d="M195.4,287.6l-0.6-2.4l-4.2,0l-0.7,2.4l-3.8,0l4.2-12.9l4.6,0l4.2,12.9L195.4,287.6z M194,282.3l-0.6-2.1
		c-0.1-0.5-0.3-1.1-0.5-1.8c-0.2-0.7-0.3-1.3-0.4-1.6c-0.1,0.3-0.2,0.8-0.3,1.5c-0.2,0.7-0.5,2-1,4L194,282.3z"/>
	<path d="M212.8,287.6l-4.6,0l-4.7-9.1h-0.1c0.1,1.4,0.2,2.5,0.2,3.3l0,5.8l-3.1,0l0-12.8l4.5,0l4.7,8.9h0.1
		c-0.1-1.3-0.1-2.3-0.1-3.1l0-5.8l3.1,0L212.8,287.6z"/>
	<path d="M226.5,280.9c0,2.1-0.6,3.8-1.8,5c-1.2,1.2-2.8,1.7-5,1.7l-4.2,0l0-12.8l4.4,0c2.1,0,3.7,0.5,4.8,1.6
		C225.9,277.4,226.5,278.9,226.5,280.9z M222.9,281c0-1.2-0.2-2.1-0.7-2.6c-0.5-0.6-1.2-0.9-2.1-0.9l-1,0l0,7.2l0.8,0
		c1.1,0,1.8-0.3,2.3-0.9C222.6,283.2,222.9,282.3,222.9,281z"/>
	<path d="M241.9,287.6l-9.3,0l0-2.3l3.1-3.2c0.9-0.9,1.5-1.6,1.8-1.9c0.3-0.3,0.5-0.6,0.6-0.9c0.1-0.2,0.2-0.5,0.2-0.8
		c0-0.3-0.1-0.6-0.3-0.8c-0.2-0.2-0.5-0.3-0.9-0.3c-0.4,0-0.8,0.1-1.2,0.3c-0.4,0.2-0.9,0.6-1.4,1l-1.9-2.2c0.7-0.6,1.2-1,1.7-1.3
		c0.5-0.3,0.9-0.4,1.5-0.6c0.5-0.1,1.1-0.2,1.8-0.2c0.8,0,1.6,0.1,2.2,0.4c0.7,0.3,1.2,0.7,1.5,1.3c0.4,0.5,0.5,1.1,0.5,1.8
		c0,0.5-0.1,1-0.2,1.4c-0.1,0.4-0.3,0.8-0.6,1.3c-0.3,0.4-0.6,0.8-1.1,1.3c-0.4,0.5-1.4,1.3-2.8,2.6v0.1l4.9,0L241.9,287.6z"/>
	<path d="M252.5,281.2c0,2.3-0.4,3.9-1.1,5c-0.8,1.1-1.9,1.6-3.5,1.6c-1.5,0-2.7-0.6-3.5-1.7c-0.8-1.1-1.2-2.7-1.2-4.9
		c0-2.3,0.4-4,1.1-5c0.8-1.1,1.9-1.6,3.5-1.6c1.5,0,2.7,0.6,3.5,1.7C252.2,277.4,252.5,279,252.5,281.2z M246.7,281.2
		c0,1.5,0.1,2.5,0.3,3s0.5,0.8,0.9,0.8c0.4,0,0.7-0.3,0.9-0.8c0.2-0.6,0.3-1.6,0.3-3c0-1.4-0.1-2.4-0.3-3c-0.2-0.6-0.5-0.9-0.9-0.9
		c-0.4,0-0.7,0.3-0.9,0.8C246.8,278.8,246.7,279.8,246.7,281.2z"/>
	<path d="M261.4,287.7l-3.5,0l0-6.8c0-0.8,0-1.6,0.1-2.3c-0.2,0.3-0.5,0.5-0.8,0.8l-1.5,1.2l-1.8-2.2l4.4-3.6l3.1,0L261.4,287.7z"/>
	<path d="M264.3,282.2c0-1.8,0.3-3.2,0.8-4.4c0.5-1.1,1.3-1.9,2.3-2.5c1-0.5,2.2-0.8,3.7-0.8c0.5,0,1.1,0.1,1.8,0.2l0,2.7
		c-0.6-0.1-1.2-0.2-1.9-0.2c-1.2,0-2,0.3-2.6,0.8c-0.6,0.5-0.9,1.3-0.9,2.5h0.1c0.5-1,1.4-1.5,2.5-1.5c1.1,0,2,0.4,2.7,1.1
		c0.6,0.7,0.9,1.8,0.9,3.1c0,1.4-0.4,2.5-1.2,3.3c-0.8,0.8-1.9,1.2-3.3,1.2c-1.5,0-2.7-0.5-3.6-1.5
		C264.8,285.4,264.3,284,264.3,282.2z M269.1,285.1c0.4,0,0.7-0.1,0.9-0.4c0.2-0.3,0.3-0.7,0.3-1.3c0-1-0.4-1.6-1.2-1.6
		c-0.4,0-0.7,0.1-1,0.4c-0.3,0.3-0.4,0.6-0.4,1c0,0.6,0.1,1,0.4,1.4C268.4,284.9,268.7,285.1,269.1,285.1z"/>
</g>
</svg>
