<?xml version="1.0" encoding="utf-8"?>
<!-- Generator: Adobe Illustrator 19.2.1, SVG Export Plug-In . SVG Version: 6.00 Build 0)  -->
<svg version="1.1" id="Layer_1" xmlns="http://www.w3.org/2000/svg" xmlns:xlink="http://www.w3.org/1999/xlink" x="0px" y="0px"
	 viewBox="0 0 315.8 219" style="enable-background:new 0 0 315.8 219;" xml:space="preserve">
<style type="text/css">
	.st0{stroke:#000000;stroke-miterlimit:10;}
	.st1{fill:none;}
	.st2{enable-background:new    ;}
	.st3{fill:none;stroke:#000000;stroke-width:8;stroke-miterlimit:10;}
</style>
<g>
	<path class="st0" d="M747.8,128.3c-8.6-14.6-18.4-31.1-19.2-50.3c0-0.1,0-0.2,0-0.3c-0.3-7.2-1.6-14-3.8-19.2
		c-2.7-6.4-6.6-9.9-10.8-9.9s-8.1,3.5-10.8,9.9c-2.2,5.2-3.6,12-3.8,19.2c0,0.1,0,0.2,0,0.3c-0.8,19.3-10.5,35.8-19.2,50.3
		c-6.8,11.5-12.7,21.4-12.7,30.4v8.5c0,1,0.7,1.8,1.7,2l23.7,3.2v9.7c0,1.1,0.9,2,2,2h12.7c1.1,0,2-0.9,2-2v-6.5h2.4v6.5
		c0,1.1,0.9,2,2,2s2-0.9,2-2v-6.5h2.4v6.5c0,1.1,0.9,2,2,2H733c1.1,0,2-0.9,2-2v-9.7l23.7-3.2c1-0.1,1.7-1,1.7-2v-8.5
		C760.5,149.7,754.6,139.8,747.8,128.3L747.8,128.3z M745.9,132.9c0,0.1,0,0.2,0,0.3V151c0,2.2-1.6,4-3.8,4.3l-7.3,1
		c-0.4-1.1-1.4-1.8-2.6-1.8h-3.6V98.8c3.9,11.6,10.1,22,15.7,31.6C744.9,131.2,745.4,132.1,745.9,132.9L745.9,132.9z M726.7,158.6
		h4.4v12l0,0v3H731h-8.6v-15.1h4.3V158.6z M705.6,173.5v0.1H697h-0.1v-3l0,0v-12.1h8.8v15H705.6z M699.2,98.8v55.8h-3.6
		c-1.2,0-2.2,0.8-2.6,1.8l-7.3-1c-2.1-0.3-3.8-2.2-3.8-4.3v-17.8c0-0.1,0-0.2,0-0.3c0.5-0.8,1-1.7,1.5-2.6
		C689.2,120.8,695.3,110.3,699.2,98.8L699.2,98.8z M671.4,165.4v-6.7c0-5.5,2.8-11.8,6.6-18.9V151c0,4.1,3.1,7.7,7.2,8.3l7.7,1.1
		v7.9L671.4,165.4z M696.8,180v-2.4h0.1h8.6v2.4H696.8z M715.9,171.5v-36.2c0-1.1-0.9-2-2-2s-2,0.9-2,2v36.2h-2.4v-14.2
		c0-1.5-1.2-2.8-2.8-2.8h-3.6V80.1c0-16.3,5.7-27.7,10.7-27.7c5.1,0,10.7,11.4,10.7,27.7v74.4h-3.6c-1.5,0-2.8,1.2-2.8,2.8v14.2
		H715.9z M722.3,180v-2.4h8.6h0.1v2.4H722.3z M756.5,165.4l-21.5,2.9v-7.9l7.7-1.1c4.1-0.6,7.2-4.1,7.2-8.3v-11.2
		c3.9,7.1,6.6,13.4,6.6,18.9V165.4z"/>
</g>
<path d="M722.3,82.3v-5.6c0-0.5-0.2-0.9-0.5-1.3c-2-2.3-4.9-3.6-7.9-3.6s-5.9,1.3-7.9,3.6c-0.3,0.4-0.5,0.8-0.5,1.3v5.6
	c0,1.1,0.9,2,2,2h12.7C721.4,84.3,722.3,83.4,722.3,82.3L722.3,82.3z M718.3,80.3h-8.8v-2.8c1.2-1.1,2.7-1.7,4.4-1.7
	c1.6,0,3.2,0.6,4.4,1.7L718.3,80.3L718.3,80.3z"/>
<rect x="566.9" y="225.1" class="st1" width="294.6" height="38.2"/>
<text transform="matrix(1 0 0 1 596.3753 257.9847)" style="font-family:'Righteous-Regular'; font-size:44.9951px; letter-spacing:3;">APPOLLO</text>
<rect x="599.8" y="200" width="230.3" height="9.1"/>
<rect x="575.4" y="62.2" transform="matrix(0.7071 -0.7071 0.7071 0.7071 67.269 563.3247)" class="st3" width="276.5" height="276.5"/>
<text transform="matrix(1 1.240000e-03 -1.240000e-03 1 639.118 287.502)" style="font-family:'OpenSans'; font-size:18px;">COMMAND 2016</text>
<g>
	<g>
		<path d="M130.6,188.6c33.9-20,72.3-42.8,116.9-44.6c0.2,0,0.5,0,0.7,0c16.7-0.7,32.5-3.7,44.6-8.8c14.9-6.3,23-15.3,23-25.1
			s-8.1-18.8-23-25.1c-12.1-5.1-27.9-8.4-44.6-8.8c-0.2,0-0.5,0-0.7,0c-44.9-1.9-83.2-24.4-116.9-44.6C103.9,15.6,80.9,1.9,60,1.9
			H40.2c-2.3,0-4.2,1.6-4.6,4L28.1,61H5.6c-2.6,0-4.6,2.1-4.6,4.6v29.5c0,2.6,2.1,4.6,4.6,4.6h15.1v5.6H5.6c-2.6,0-4.6,2.1-4.6,4.6
			s2.1,4.6,4.6,4.6h15.1v5.6H5.6c-2.6,0-4.6,2.1-4.6,4.6v29.5c0,2.6,2.1,4.6,4.6,4.6h22.5l7.4,55.1c0.2,2.3,2.3,4,4.6,4H60
			C80.9,217.8,103.9,204.4,130.6,188.6L130.6,188.6z M119.9,184.1c-0.2,0-0.5,0-0.7,0H77.9c-5.1,0-9.3-3.7-10-8.8l-2.3-17
			c2.6-0.9,4.2-3.3,4.2-6v-8.4h129.7c-27,9.1-51.1,23.5-73.4,36.5C123.9,181.8,121.8,183,119.9,184.1L119.9,184.1z M60.2,139.3v10.2
			H32.3l0,0h-7v-0.2v-20h35.1L60.2,139.3z M25.6,90.2h-0.2v-20V70h7l0,0h28.1v20.5L25.6,90.2z M199.2,75.6H69.5v-8.4
			c0-2.8-1.9-5.1-4.2-6l2.3-17c0.7-4.9,5.1-8.8,10-8.8H119c0.2,0,0.5,0,0.7,0c1.9,1.2,4,2.3,6,3.5C148,52.1,172.4,66.5,199.2,75.6
			L199.2,75.6z M44.4,10.8H60c12.8,0,27.4,6.5,43.9,15.3h-26c-9.5,0-17.9,7.2-19.3,16.7L56,60.7H37.6L44.4,10.8z M10.5,70H16v0.2v20
			h-5.6V70z M30.2,114.4h84.1c2.6,0,4.6-2.1,4.6-4.6c0-2.6-2.1-4.6-4.6-4.6H30.2v-5.6h33c3.5,0,6.5-2.8,6.5-6.5v-8.4h172.9
			c37.9,0,64.4,13.2,64.4,24.9c0,11.9-26.5,24.9-64.4,24.9H69.7V126c0-3.5-2.8-6.5-6.5-6.5h-33V114.4z M10.5,129.3H16v20v0.2h-5.6
			V129.3z M44.4,208.8l-6.7-50H56l2.6,17.9c1.4,9.5,9.5,16.7,19.3,16.7h26c-16.5,9.1-31.1,15.3-43.9,15.3H44.4z"/>
		<path d="M0,154.2l0-29.5c0-3.3,2.6-5.8,5.8-5.8h13.9v-3.3H5.8c-3.3,0-5.8-2.6-5.8-5.8c0-3.3,2.6-5.8,5.8-5.8h13.9v-3.3H5.8
			c-3.3,0-5.8-2.6-5.8-5.8l0-29.5c0-3.3,2.6-5.8,5.8-5.8h21.6l7.2-54.2c0.5-2.8,2.8-5.1,5.8-5.1h19.8c21.1,0,44.4,13.7,71.1,29.5
			c33.7,20,72,42.5,116.4,44.4c0.5,0,0.7,0,0.9,0.2c16.7,0.5,32.8,3.7,44.9,9.1c15.3,6.5,23.7,15.8,23.7,26.3s-8.4,19.8-23.7,26.3
			c-12.3,5.3-27.9,8.4-45.1,9.1c-0.2,0-0.5,0-0.7,0c-44.6,1.9-82.7,24.4-116.4,44.4l0,0l-0.7-0.9l0.5,0.9
			C104.4,205.3,81.1,219,60,219H40.2c-2.8,0-5.3-2.1-5.8-5.1l-7.2-54.2H5.6C2.6,160,0,157.4,0,154.2z M22.1,113.3v7.9H5.8
			c-1.9,0-3.5,1.6-3.5,3.5v29.5c0,1.9,1.6,3.5,3.5,3.5h23.7l7.4,56.2c0.2,1.6,1.6,3,3.5,3h19.8c20.5,0,43.5-13.5,70-29.3l0.7,0.9
			l-0.7-0.9c33.9-20,72.5-43,117.6-44.6c0.2,0,0.5,0,0.7,0c17-0.7,32.5-3.7,44.4-8.8c14.4-6.3,22.3-14.6,22.3-24.2
			c0-9.3-7.9-17.9-22.3-24.2c-11.9-5.1-27.7-8.1-44.4-8.8c-0.5,0-0.7,0-0.9,0c-45.1-1.9-83.7-24.6-117.6-44.6
			C103.4,16.6,80.4,3.1,60,3.1H40.2c-1.6,0-3.3,1.4-3.5,3l-7.4,56.2H5.8c-1.9,0-3.5,1.6-3.5,3.5v29.5c0,1.9,1.6,3.5,3.5,3.5h16.3
			v7.9H5.8c-1.9,0-3.5,1.6-3.5,3.5s1.6,3.5,3.5,3.5h16.3V113.3z M9.3,150.7v-22.5h7.9v22.5l-1.2,0.2H9.3V150.7z M11.6,130.5v18.1
			h3.3v-18.1H11.6z M9.3,91.4V68.6h7.9v1.2v21.4H9.3V91.4z M11.6,71.2v18.1h3.3V71.2H11.6z M23.9,69.1l1.2-0.2h36.3v22.8H23.9V69.1z
			 M26.3,71.2v18.1H59V71.2H26.3z M23.9,150.7v-1.2v-21.4h37.4v22.8H23.9V150.7z M26.3,130.5v18.1H59v-18.1H26.3z M29.1,121.2v-7.9
			h85.3c1.9,0,3.5-1.6,3.5-3.5c0-1.9-1.6-3.5-3.5-3.5H29.1v-7.9h34.2c3,0,5.3-2.3,5.3-5.3v-9.5h173.8c39.3,0,65.5,13.5,65.5,26
			s-26.3,26-65.5,26H68.3V126c0-3-2.3-5.3-5.3-5.3H29.1V121.2z M31.4,115.6v3.3h31.8c4.2,0,7.7,3.5,7.7,7.7v7.2h171.5
			c36.3,0,63.2-12.5,63.2-23.7s-27-23.7-63.2-23.7H70.7v7.2c0,4.2-3.5,7.7-7.7,7.7H31.4v3.3h83c3.3,0,5.8,2.6,5.8,5.8
			s-2.6,5.8-5.8,5.8h-83V115.6z M36.3,157.6h20.7l2.8,18.8c1.2,8.8,9.1,15.6,18.1,15.6h30.7l-4,2.1c-13.9,7.7-30.2,15.6-44.4,15.6
			H43.5L36.3,157.6z M55.1,160H39l6.3,47.6H60c12.3,0,26.5-6.3,39.3-13H77.6c-10.2,0-18.8-7.7-20.5-17.7L55.1,160z M36.3,61.9
			l7-52.3H60c14.2,0,30.4,7.9,44.4,15.6l4,2.1H77.9c-9.1,0-16.7,6.7-18.1,15.6l-2.8,18.8H36.3V61.9z M45.3,11.9L39,59.6h16l2.3-17
			c1.4-10,10.2-17.7,20.5-17.7h21.6c-12.8-6.7-27-13-39.3-13L45.3,11.9L45.3,11.9z M63.9,157.6l0.9-0.2c2.1-0.7,3.5-2.8,3.5-4.9V143
			h138l-6.7,2.3c-26.7,9.1-51.4,23.7-73.2,36.5c-2.1,1.2-4,2.3-6,3.5l-0.5,0.2h-0.5c-0.2,0-0.2,0-0.5,0H77.9
			c-5.6,0-10.5-4.2-11.2-9.8L63.9,157.6z M70.7,145.1v7.2c0,2.8-1.6,5.6-4.2,6.7l2.3,16c0.7,4.4,4.4,7.7,8.8,7.7H119
			c0.2,0,0.2,0,0.5,0c1.9-1.2,3.7-2.1,5.6-3.3c20-11.9,42.8-25.3,67.2-34.4H70.7z M63.9,61.9L66.5,44c0.7-5.6,5.6-9.8,11.2-9.8H119
			c0.2,0,0.5,0,0.5,0h0.5l0.5,0.2c2.1,1.2,4,2.3,6,3.5c21.6,12.8,46.2,27.4,73.2,36.5l6.7,2.3H68.6v-9.5c0-2.3-1.4-4.2-3.5-4.9
			L63.9,61.9z M119.7,36.6c-0.2,0-0.2,0-0.5,0H77.9c-4.4,0-8.4,3.3-8.8,7.7l-2.3,16c2.6,1.4,4.2,4,4.2,6.7v7.2h121.8
			c-24.6-9.3-47.2-22.5-67.2-34.4C123.4,38.9,121.5,37.7,119.7,36.6z"/>
	</g>
</g>
<g>
	<path d="M237.5,129.3h13c1.2,0,2.1-0.5,3-1.2c5.3-4.6,8.4-11.4,8.4-18.4c0-7-3-13.7-8.4-18.4c-0.9-0.7-1.9-1.2-3-1.2h-13
		c-2.6,0-4.6,2.1-4.6,4.6v29.5C232.9,127.2,235,129.3,237.5,129.3L237.5,129.3z M242.2,120V99.5h6.5c2.6,2.8,4,6.3,4,10.2
		c0,3.7-1.4,7.4-4,10.2L242.2,120L242.2,120z"/>
</g>
</svg>
